<?xml version="1.0" encoding="iso-8859-1"?>
<!-- Uploaded to: SVG Repo, www.svgrepo.com, Generator: SVG Repo Mixer Tools -->
<svg height="800px" width="800px" version="1.1" id="Layer_1" xmlns="http://www.w3.org/2000/svg" xmlns:xlink="http://www.w3.org/1999/xlink" 
	 viewBox="0 0 432 432" xml:space="preserve">
<g transform="translate(0 -1020.36)" shape-rendering="auto" image-rendering="auto" color-rendering="auto" color-interpolation="sRGB">
	<path style="fill:#484666;" d="M20.061,1044.377C9.059,1044.377,0,1053.468,0,1064.47v63.875c0,11.004,9.059,20.094,20.061,20.094
		h3.906c-0.003,75.582,0,151.098,0,226.656c0,29.371,24.001,53.25,53.371,53.25c92.441,0,184.882,0,277.323,0
		c29.37,0,53.245-23.879,53.245-53.25c0.006-75.568,0-151.074,0-226.658h4.033c11.002,0,20.061-9.092,20.061-20.094v-63.875
		c0-11.004-9.059-20.094-20.061-20.094C281.313,1044.375,150.687,1044.375,20.061,1044.377L20.061,1044.377z"/>
	<path style="fill:#64A5DA;" d="M20.061,1060.439h155.893v71.938H20.061c-2.358,0-3.997-1.676-3.997-4.033v-63.875
		C16.056,1062.164,17.743,1060.449,20.061,1060.439z"/>
	<path style="fill:#FABD6B;" d="M192.015,1060.439h47.964c0,0,0,106.611,0,159.941c0.002,0.176-9.062,0.287-16.371,5.676
		c-3.853,2.838-5.968,5.252-7.841,10.57c-1.275-3.389-3.615-6.963-6.286-9.309c-5.75-4.723-9.64-5.854-17.467-6.533
		c0.004-0.16,0.004-0.305,0-0.416c0.008-53.346,0-159.928,0-159.928L192.015,1060.439z"/>
	<path style="fill:#64A5DA;" d="M256.041,1060.439h155.893c2.358,0,3.997,1.676,3.997,4.033v63.873c0,2.359-1.645,4.033-3.997,4.033
		H256.041V1060.439z"/>
	<g>
		<path style="fill:#E1E1E6;" d="M40.028,1148.439h135.926c-0.005,24.523-0.019,49.779,0.053,74.033
			c-3.991,1.344-7.359,3.406-10.592,5.934H40.018L40.028,1148.439z"/>
		<path style="fill:#E1E1E6;" d="M256.041,1148.439h135.926v79.969H266.165c-3.162-2.369-6.458-4.346-10.311-5.621
			C256.315,1198.353,256.036,1173.13,256.041,1148.439z"/>
	</g>
	<path style="fill:#D87070;" d="M243.167,1236.314c0.267,0.066,0.538,0.121,0.81,0.16c11.349-0.01,19.977,8.355,19.967,18.531
		c-0.007,4.809-2.618,9.641-7.218,14.406c-13.87,14.467-34.775,36.969-40.84,43.469c-6.272-6.465-29.15-30.094-42.871-45.344
		c-3.289-3.65-5.091-8.018-5.091-12.406c0.009-10.174,8.747-18.645,20.092-18.656c6.129-0.004,11.353,1.93,14.749,4.717
		c3.398,2.789,5.194,6.256,5.188,11.344c0.024,4.443,3.645,8.027,8.089,8.004c4.41-0.023,7.979-3.594,8.003-8.004
		c0.009-10.141,8-17.43,19.123-16.188L243.167,1236.314z"/>
	<g>
		<path style="fill:#FABD6B;" d="M40.028,1244.47h113.896c-1.143,3.363-1.935,6.885-1.935,10.625
			c0.009,8.682,3.568,16.889,9.218,23.156c3.501,3.889,8.675,9.273,13.249,14.154H40.03L40.028,1244.47z"/>
		<path style="fill:#FABD6B;" d="M278.07,1244.47h113.897v47.938H257.072c4.91-5.199,7.471-7.996,11.249-11.938
			c6.252-6.477,11.671-14.934,11.687-25.375c0.004-3.756-0.768-7.275-1.935-10.625H278.07z"/>
	</g>
	<g>
		<path style="fill:#E1E1E6;" d="M40.028,1308.345h135.926v104.063H77.338c-20.723,0-37.31-16.588-37.31-37.313L40.028,1308.345z"/>
		<path style="fill:#E1E1E6;" d="M256.041,1308.345h135.926v66.75c0,20.725-16.586,37.313-37.31,37.313h-98.617V1308.345z"/>
	</g>
	<path style="fill:#FABD6B;" d="M239.979,1310.564v101.844h-47.964v-101.313c10.025,10.467,18.186,18.875,18.186,18.875
		c3.089,3.16,8.154,3.217,11.313,0.127c0.096-0.094,0.189-0.189,0.28-0.287c0,0,11.506-12.158,18.186-19.281V1310.564z"/>
	<g>
		<path style="fill:#E0A45C;" d="M231.969,1061.375c0,0,0,106.609,0,159.938c0.002,0.176-8.598,1.641-16.188,6.625
			c-1.684,1.113-2.798,1.279-3.813,2.219c0.57,0.727,1.102,1.393,1.594,2.188c0.551,0.701,0.992,1.656,1.344,2.594
			c0.264,0.56,0.666,1.1,0.875,1.656c1.872-5.318,3.96-7.724,7.813-10.563c7.308-5.387,16.377-5.511,16.375-5.688
			c-0.007-53.037,0-158.969,0-158.969H231.969z"/>
		<path style="fill:#E0A45C;" d="M239.967,1310.57c-2.936,3.131-4.586,4.854-7.999,8.469v93.377h7.999V1310.57z M192.002,1311.097
			v8.314c4.011,4.154,10.187,10.563,10.187,10.563c2.557,2.631,6.576,3.184,9.749,1.344c-0.643-0.365-1.231-0.816-1.75-1.344
			c0,0-8.161-8.406-18.186-18.875V1311.097z"/>
		<path style="fill:#E0A45C;" d="M383.955,1244.476v47.938h7.999v-47.938H383.955z"/>
		<path style="fill:#E0A45C;" d="M146.662,1244.476c-1.143,3.361-1.937,6.885-1.937,10.623c0.009,8.682,3.568,16.889,9.218,23.156
			c3.501,3.889,8.674,9.273,13.249,14.156h7.249c-4.574-4.883-9.748-10.27-13.249-14.156c-5.65-6.268-9.209-14.475-9.218-23.156
			c0-3.738,0.795-7.262,1.937-10.623H146.662z"/>
	</g>
	<path style="fill:#BD5858;" d="M243.154,1236.32c-1.499-0.176-2.752,0.176-4.125,0.305c10.833,0.48,19.008,8.48,18.998,18.344
		c-0.007,4.809-2.618,9.641-7.218,14.406c-12.873,13.428-30.398,32.291-37.903,40.344c0.583,0.607,2.535,2.678,2.968,3.125
		c6.065-6.5,26.97-29.002,40.84-43.469c4.6-4.766,7.211-9.598,7.218-14.406c0.01-10.176-8.619-18.541-19.967-18.531
		c-0.273-0.039-0.545-0.094-0.812-0.16L243.154,1236.32z M188.003,1236.48c-0.964,0.002-1.765,0.385-2.687,0.496
		c4.648,0.561,8.784,1.963,11.53,4.217c3.398,2.789,5.193,6.256,5.187,11.344c0.026,4.443,3.65,8.025,8.094,7.998
		c0.995-0.006,1.98-0.195,2.905-0.561c-3.057-1.207-5.074-4.15-5.093-7.438c0.006-5.088-1.789-8.555-5.187-11.344
		c-3.396-2.787-8.62-4.723-14.749-4.719V1236.48z"/>
	<g>
		<path style="fill:#5084AE;" d="M404.172,1060.445c2.358,0,3.968,1.674,3.968,4.031v63.873c0,2.359-1.616,4.031-3.968,4.031h7.749
			c2.352,0,4-1.674,4-4.031v-63.873c0-2.359-1.641-4.031-4-4.031H404.172z"/>
		<path style="fill:#5084AE;" d="M167.911,1060.445v71.938h8.031v-71.938H167.911z"/>
	</g>
	<g>
		<path style="fill:#C4C9D3;" d="M384.361,1148.445v79.969h7.593v-79.969H384.361z"/>
		<path style="fill:#C4C9D3;" d="M384.017,1308.349v66.75c0,20.725-16.586,37.314-37.309,37.314h7.937
			c20.723,0,37.309-16.588,37.309-37.314v-66.75H384.017z"/>
		<path style="fill:#C4C9D3;" d="M168.004,1308.349v104.064h7.937v-104.064H168.004z"/>
		<path style="fill:#C4C9D3;" d="M168.004,1148.445v71.938c0.006,0.736,0.11,1.455,0.312,2.156
			c-3.991,1.344-7.61,3.348-10.843,5.875h7.937c3.233-2.527,6.477-4.471,10.468-5.813c-0.202-0.703,0.069-1.488,0.062-2.219v-71.938
			H168.004z"/>
	</g>
</g>
</svg>